<?xml version="1.0" encoding="utf-8"?>
<!-- Generator: Adobe Illustrator 16.0.0, SVG Export Plug-In . SVG Version: 6.00 Build 0)  -->
<!DOCTYPE svg PUBLIC "-//W3C//DTD SVG 1.1//EN" "http://www.w3.org/Graphics/SVG/1.1/DTD/svg11.dtd">
<svg version="1.1" id="Layer_1" xmlns="http://www.w3.org/2000/svg" xmlns:xlink="http://www.w3.org/1999/xlink" x="0px" y="0px"
	 width="300px" height="171.75px" viewBox="0 4.25 300 171.75" enable-background="new 0 4.25 300 171.75" xml:space="preserve">
<g>
	<path fill="none" stroke="#1884C7" stroke-miterlimit="10" stroke-dasharray="6" d="M2.027,176v-48.744
		c0,0-1.6-28.624,19.841-27.73c21.44,0.895,261.44,0,261.44,0s12.801-3.577,14.402,21.022c1.6,24.597,0,55.452,0,55.452"/>
	<path fill="none" stroke="#1884C7" stroke-miterlimit="10" stroke-dasharray="6" d="M220.093,99.525c0,0,7.984-3.577,8.981,21.022
		c0.999,24.598,0,55.452,0,55.452"/>
	<path fill="none" stroke="#1884C7" stroke-miterlimit="10" stroke-dasharray="6" d="M76.47,176v-48.744
		c0,0-1.396-28.624,17.295-27.73"/>
	<g>
		
			<line fill="none" stroke="#A6AFB7" stroke-miterlimit="10" stroke-dasharray="6" x1="149.991" y1="100.344" x2="149.991" y2="1.5"/>
		<path fill="none" stroke="#A6AFB7" stroke-miterlimit="10" stroke-dasharray="6" d="M149.991,41.753
			c0,0,7.454-21.618,41.745-20.873c34.289,0.746,81.994-0.019,81.994-0.019s23.112-0.727,23.112-19.362"/>
		<path fill="none" stroke="#1884C7" stroke-miterlimit="10" stroke-dasharray="6" d="M149.507,41.254
			c0,0-7.471-21.618-41.84-20.873s-82.185-0.019-82.185-0.019S2.318,19.636,2.318,1"/>
	</g>
	
		<line fill="none" stroke="#1884C7" stroke-miterlimit="10" stroke-dasharray="6" x1="149.991" y1="100.344" x2="149.991" y2="41.753"/>
</g>
</svg>
